<?xml version="1.0" standalone="yes"?>
<svg xmlns="http://www.w3.org/2000/svg" width="500" height="500">
<path style="fill:#010101; stroke:none;" d="M0 0L0 500L500 500L500 0L0 0z"/>
<path style="fill:#651080; stroke:none;" d="M152 117C158.129 130.143 174.773 141.773 185 152C188.916 155.916 193.392 162.276 199 163.682C213.402 167.293 230.005 160.07 244 166C235.025 153.259 221.55 142.798 210.421 131.92C205.908 127.509 200.658 120.005 194.715 117.6C183.706 113.144 163.899 117 152 117z"/>
<path style="fill:#510234; stroke:none;" d="M249 117L250 118L249 117z"/>
<path style="fill:#651080; stroke:none;" d="M249 118L249 120C264.905 132.651 277.749 156.16 296 165L296 131L294.972 118.603L283 117L249 118M335 117L335 164L367 164L367 187L368 187C368 164.427 371.122 139.202 367 117L335 117z"/>
<path style="fill:#510234; stroke:none;" d="M367 117L367 120L368 120L367 117M196 118L197 119L196 118M197 119L198 120L197 119M153 120L154 121L153 120M198 120L199 121L198 120M154 121L155 122L154 121M199 121L200 122L199 121M251 121L252 122L251 121M252 122L253 123L252 122M253 123L254 124L253 123M203 125L204 126L203 125M159 126L160 127L159 126M204 126L205 127L204 126M160 127L161 128L160 127M205 127L206 128L205 127M132 128L132 132L133 132L132 128M161 128L162 129L161 128M206 128L207 129L206 128M258 128L259 129L258 128z"/>
<path style="fill:#651080; stroke:none;" d="M133 129L132 173L133 173L133 164L167 164C159.1 151.409 144.287 138.681 133 129z"/>
<path style="fill:#510234; stroke:none;" d="M259 129L260 130L259 129M135 131L136 132L135 131M136 132L137 133L136 132M165 132L166 133L165 132M210 132L211 133L210 132M137 133L138 134L137 133M166 133L167 134L166 133M211 133L212 134L211 133M138 134L139 135L138 134M167 134L168 135L167 134M264 134L265 135L264 134M265 135L266 136L265 135M140 136L141 137L140 136M141 137L142 138L141 137M142 138L143 139L142 138M171 138L172 139L171 138M216 138L217 139L216 138M143 139L144 140L143 139M172 139L173 140L172 139M217 139L218 140L217 139M144 140L145 141L144 140M173 140L174 141L173 140M270 140L271 141L270 140M271 141L272 142L271 141M146 142L147 143L146 142M147 143L148 144L147 143M148 144L149 145L148 144M149 145L150 146L149 145M178 145L179 146L178 145M150 146L151 147L150 146M179 146L180 147L179 146M276 146L277 147L276 146M227 148L228 149L227 148M278 148L279 149L278 148M153 149L154 150L153 149M154 150L155 151L154 150M155 151L156 152L155 151M184 151L185 152L184 151M156 152L157 153L156 152M185 152L186 153L185 152M157 153L158 154L157 153M186 153L187 154L186 153M283 153L284 154L283 153M233 154L234 155L233 154M284 154L285 155L284 154M159 155L160 156L159 155M160 156L161 157L160 156M161 157L162 158L161 157M190 157L191 158L190 157M162 158L163 159L162 158M191 158L192 159L191 158M163 159L164 160L163 159M192 159L193 160L192 159M289 159L290 160L289 159M239 160L240 161L239 160M290 160L291 161L290 160M165 161L166 162L165 161M166 162L167 163L166 162M167 163L170 166L167 163M196 163L197 164L196 163z"/>
<path style="fill:#a20986; stroke:none;" d="M133 164C133.001 176.796 141.451 182.304 149.961 190.985C158.742 199.944 167.397 211.228 178 218C178 214.496 185.054 216 188 216L219 216L182.715 178.575L167 164.603L133 164z"/>
<path style="fill:#510234; stroke:none;" d="M197 164L199 166L197 164z"/>
<path style="fill:#a20986; stroke:none;" d="M198 164L198 165L254 220L251 216L294 216L256.17 177.579L240.985 164.514L198 164M335 164L335 216L367 216L367 332L368 332L367 164L335 164z"/>
<path style="fill:#651080; stroke:none;" d="M199 165L200 166L199 165z"/>
<path style="fill:#510234; stroke:none;" d="M244 165L245 166L244 165z"/>
<path style="fill:#651080; stroke:none;" d="M170 166L171 167L170 166M200 166L201 167L200 166z"/>
<path style="fill:#510234; stroke:none;" d="M245 166L246 167L245 166M171 167L172 168L171 167z"/>
<path style="fill:#651080; stroke:none;" d="M201 167L202 168L201 167z"/>
<path style="fill:#510234; stroke:none;" d="M246 167L247 168L246 167M172 168L173 169L172 168z"/>
<path style="fill:#651080; stroke:none;" d="M202 168L203 169L202 168M246 168L247 169L246 168z"/>
<path style="fill:#510234; stroke:none;" d="M173 169L174 170L173 169z"/>
<path style="fill:#651080; stroke:none;" d="M203 169L204 170L203 169M247 169L248 170L247 169z"/>
<path style="fill:#510234; stroke:none;" d="M174 170L175 171L174 170M203 170L204 171L203 170z"/>
<path style="fill:#651080; stroke:none;" d="M248 170L249 171L248 170M175 171L176 172L175 171z"/>
<path style="fill:#510234; stroke:none;" d="M204 171L205 172L204 171z"/>
<path style="fill:#651080; stroke:none;" d="M205 171L206 172L205 171M249 171L250 172L249 171z"/>
<path style="fill:#510234; stroke:none;" d="M250 171L251 172L250 171z"/>
<path style="fill:#651080; stroke:none;" d="M176 172L177 173L176 172M206 172L207 173L206 172z"/>
<path style="fill:#510234; stroke:none;" d="M251 172L252 173L251 172M132 173L133 174L132 173z"/>
<path style="fill:#651080; stroke:none;" d="M177 173L178 174L177 173M207 173L208 174L207 173z"/>
<path style="fill:#510234; stroke:none;" d="M252 173L253 174L252 173M133 174L134 175L133 174z"/>
<path style="fill:#651080; stroke:none;" d="M178 174L179 175L178 174M208 174L209 175L208 174z"/>
<path style="fill:#510234; stroke:none;" d="M253 174L254 175L253 174M134 175L135 176L134 175M179 175L180 176L179 175z"/>
<path style="fill:#651080; stroke:none;" d="M135 176L136 177L135 176z"/>
<path style="fill:#510234; stroke:none;" d="M180 176L181 177L180 176M209 176L210 177L209 176z"/>
<path style="fill:#651080; stroke:none;" d="M254 176L255 177L254 176M136 177L137 178L136 177z"/>
<path style="fill:#510234; stroke:none;" d="M181 177L182 178L181 177M210 177L211 178L210 177z"/>
<path style="fill:#651080; stroke:none;" d="M255 177L256 178L255 177z"/>
<path style="fill:#510234; stroke:none;" d="M137 178L138 179L137 178z"/>
<path style="fill:#651080; stroke:none;" d="M182 178L183 179L182 178z"/>
<path style="fill:#510234; stroke:none;" d="M211 178L212 179L211 178M257 178L258 179L257 178M138 179L139 180L138 179M258 179L259 180L258 179M139 180L140 181L139 180z"/>
<path style="fill:#651080; stroke:none;" d="M184 180L185 181L184 180z"/>
<path style="fill:#510234; stroke:none;" d="M259 180L260 181L259 180M140 181L141 182L140 181M185 181L186 182L185 181z"/>
<path style="fill:#651080; stroke:none;" d="M141 182L142 183L141 182z"/>
<path style="fill:#510234; stroke:none;" d="M186 182L187 183L186 182M215 182L216 183L215 182M334 182L334 238L335 238L335 200L334 182z"/>
<path style="fill:#651080; stroke:none;" d="M142 183L143 184L142 183z"/>
<path style="fill:#510234; stroke:none;" d="M187 183L188 184L187 183M216 183L217 184L216 183M143 184L144 185L143 184z"/>
<path style="fill:#651080; stroke:none;" d="M188 184L189 185L188 184z"/>
<path style="fill:#510234; stroke:none;" d="M217 184L218 185L217 184M263 184L264 185L263 184M144 185L145 186L144 185M264 185L265 186L264 185M145 186L146 187L145 186M190 186L191 187L190 186M265 186L266 187L265 186M146 187L147 188L146 187M191 187L192 188L191 187z"/>
<path style="fill:#651080; stroke:none;" d="M147 188L148 189L147 188z"/>
<path style="fill:#510234; stroke:none;" d="M192 188L193 189L192 188M221 188L222 189L221 188z"/>
<path style="fill:#651080; stroke:none;" d="M148 189L149 190L148 189z"/>
<path style="fill:#510234; stroke:none;" d="M193 189L194 190L193 189M222 189L223 190L222 189M149 190L150 191L149 190z"/>
<path style="fill:#651080; stroke:none;" d="M194 190L195 191L194 190z"/>
<path style="fill:#510234; stroke:none;" d="M223 190L224 191L223 190M269 190L270 191L269 190M150 191L151 192L150 191M270 191L271 192L270 191M151 192L152 193L151 192M196 192L197 193L196 192M271 192L272 193L271 192M152 193L153 194L152 193M197 193L198 194L197 193M153 194L154 195L153 194M198 194L199 195L198 194M199 195L200 196L199 195M228 195L229 196L228 195M155 196L156 197L155 196M200 196L201 197L200 196M229 196L230 197L229 196M275 196L276 197L275 196M156 197L157 198L156 197M276 197L277 198L276 197M157 198L158 199L157 198M277 198L278 199L277 198M158 199L159 200L158 199M203 199L204 200L203 199M278 199L279 200L278 199M159 200L160 201L159 200M204 200L205 201L204 200M205 201L206 202L205 201M234 201L235 202L234 201M206 202L207 203L206 202M235 202L236 203L235 202M162 203L163 204L162 203M207 203L208 204L207 203M236 203L237 204L236 203M282 203L283 204L282 203M163 204L164 205L163 204M283 204L284 205L283 204M164 205L165 206L164 205M209 205L210 206L209 205M284 205L285 206L284 205M165 206L166 207L165 206M210 206L211 207L210 206M211 207L212 208L211 207M240 207L241 208L240 207M212 208L213 209L212 208M241 208L242 209L241 208M168 209L169 210L168 209M213 209L214 210L213 209M242 209L243 210L242 209M288 209L289 210L288 209M169 210L170 211L169 210M289 210L290 211L289 210M170 211L171 212L170 211M215 211L216 212L215 211M290 211L291 212L290 211M171 212L172 213L171 212M216 212L217 213L216 212M217 213L218 214L217 213M246 213L247 214L246 213M218 214L219 215L218 214M247 214L248 215L247 214M174 215L175 216L174 215M219 215L220 216L219 215M248 215L249 216L248 215M294 215L297 218L294 215M175 216L176 217L175 216z"/>
<path style="fill:#f40297; stroke:none;" d="M177 216L199.961 240.985L246.427 288L269 312L133 312L133 344L346 344C339.976 331.886 325.511 321.511 316 312L253 249C243.826 239.826 231.2 221.13 218.91 216.589C207.658 212.431 189.007 216 177 216z"/>
<path style="fill:#a20986; stroke:none;" d="M220 216L221 217L220 216z"/>
<path style="fill:#f40297; stroke:none;" d="M251 216C263.585 235.256 285.42 251.892 301.845 268C322.896 288.645 342.916 315.035 367 332L367 216L335 216L335 255C324.214 246.782 315.012 236.057 305.17 226.729C301.791 223.527 298.239 218.376 293.83 216.603C282.757 212.149 262.956 216 251 216z"/>
<path style="fill:#510234; stroke:none;" d="M176 217L177 218L176 217M221 217L222 218L221 217M177 218L178 219L177 218M222 218L224 220L222 218z"/>
<path style="fill:#a20986; stroke:none;" d="M296 218L297 219L296 218z"/>
<path style="fill:#651080; stroke:none;" d="M178 219L179 220L178 219z"/>
<path style="fill:#a20986; stroke:none;" d="M222 219L223 220L222 219M297 219L298 220L297 219M179 220L180 221L179 220z"/>
<path style="fill:#510234; stroke:none;" d="M224 220L225 221L224 220M253 220L254 221L253 220z"/>
<path style="fill:#a20986; stroke:none;" d="M298 220L299 221L298 220z"/>
<path style="fill:#651080; stroke:none;" d="M180 221L181 222L180 221M225 221L226 222L225 221z"/>
<path style="fill:#510234; stroke:none;" d="M254 221L255 222L254 221z"/>
<path style="fill:#a20986; stroke:none;" d="M255 221L256 222L255 221M299 221L300 222L299 221z"/>
<path style="fill:#510234; stroke:none;" d="M300 221L301 222L300 221M181 222L182 223L181 222z"/>
<path style="fill:#a20986; stroke:none;" d="M226 222L227 223L226 222M256 222L257 223L256 222z"/>
<path style="fill:#651080; stroke:none;" d="M301 222L302 223L301 222z"/>
<path style="fill:#510234; stroke:none;" d="M182 223L183 224L182 223z"/>
<path style="fill:#a20986; stroke:none;" d="M227 223L228 224L227 223M257 223L258 224L257 223z"/>
<path style="fill:#651080; stroke:none;" d="M302 223L303 224L302 223z"/>
<path style="fill:#510234; stroke:none;" d="M183 224L184 225L183 224z"/>
<path style="fill:#651080; stroke:none;" d="M228 224L229 225L228 224z"/>
<path style="fill:#a20986; stroke:none;" d="M258 224L259 225L258 224z"/>
<path style="fill:#510234; stroke:none;" d="M303 224L304 225L303 224M132 225L133 226L132 225z"/>
<path style="fill:#651080; stroke:none;" d="M184 225L185 226L184 225z"/>
<path style="fill:#510234; stroke:none;" d="M229 225L230 226L229 225z"/>
<path style="fill:#a20986; stroke:none;" d="M259 225L260 226L259 225M303 225L304 226L303 225M132 226L132 273L133 273C133 259.735 137.109 238.177 132 226z"/>
<path style="fill:#f40297; stroke:none;" d="M133 226L133 273L179 273L161.13 253.575L133 226z"/>
<path style="fill:#510234; stroke:none;" d="M134 226L135 227L134 226z"/>
<path style="fill:#a20986; stroke:none;" d="M185 226L186 227L185 226z"/>
<path style="fill:#510234; stroke:none;" d="M230 226L231 227L230 226M259 226L260 227L259 226z"/>
<path style="fill:#a20986; stroke:none;" d="M304 226L305 227L304 226M134 227L135 228L134 227M186 227L187 228L186 227z"/>
<path style="fill:#510234; stroke:none;" d="M231 227L232 228L231 227M260 227L261 228L260 227z"/>
<path style="fill:#a20986; stroke:none;" d="M305 227L306 228L305 227M135 228L136 229L135 228z"/>
<path style="fill:#510234; stroke:none;" d="M136 228L137 229L136 228z"/>
<path style="fill:#a20986; stroke:none;" d="M187 228L188 229L187 228z"/>
<path style="fill:#651080; stroke:none;" d="M232 228L233 229L232 228z"/>
<path style="fill:#510234; stroke:none;" d="M261 228L262 229L261 228z"/>
<path style="fill:#a20986; stroke:none;" d="M262 228L263 229L262 228z"/>
<path style="fill:#510234; stroke:none;" d="M307 228L308 229L307 228M137 229L138 230L137 229M188 229L189 230L188 229z"/>
<path style="fill:#a20986; stroke:none;" d="M233 229L234 230L233 229M263 229L264 230L263 229z"/>
<path style="fill:#651080; stroke:none;" d="M308 229L309 230L308 229z"/>
<path style="fill:#510234; stroke:none;" d="M138 230L139 231L138 230M189 230L190 231L189 230z"/>
<path style="fill:#651080; stroke:none;" d="M234 230L235 231L234 230z"/>
<path style="fill:#a20986; stroke:none;" d="M264 230L265 231L264 230z"/>
<path style="fill:#510234; stroke:none;" d="M309 230L310 231L309 230M139 231L140 232L139 231z"/>
<path style="fill:#a20986; stroke:none;" d="M190 231L191 232L190 231z"/>
<path style="fill:#510234; stroke:none;" d="M235 231L236 232L235 231z"/>
<path style="fill:#a20986; stroke:none;" d="M265 231L266 232L265 231z"/>
<path style="fill:#510234; stroke:none;" d="M310 231L311 232L310 231M140 232L141 233L140 232z"/>
<path style="fill:#a20986; stroke:none;" d="M191 232L192 233L191 232z"/>
<path style="fill:#510234; stroke:none;" d="M236 232L237 233L236 232M311 232L312 233L311 232z"/>
<path style="fill:#a20986; stroke:none;" d="M140 233L141 234L140 233M192 233L193 234L192 233z"/>
<path style="fill:#510234; stroke:none;" d="M237 233L238 234L237 233M266 233L267 234L266 233M312 233L313 234L312 233z"/>
<path style="fill:#a20986; stroke:none;" d="M141 234L142 235L141 234z"/>
<path style="fill:#510234; stroke:none;" d="M142 234L143 235L142 234z"/>
<path style="fill:#a20986; stroke:none;" d="M193 234L194 235L193 234z"/>
<path style="fill:#510234; stroke:none;" d="M238 234L239 235L238 234z"/>
<path style="fill:#a20986; stroke:none;" d="M268 234L269 235L268 234z"/>
<path style="fill:#510234; stroke:none;" d="M313 234L314 235L313 234M143 235L144 236L143 235M194 235L195 236L194 235z"/>
<path style="fill:#a20986; stroke:none;" d="M239 235L240 236L239 235M269 235L270 236L269 235M314 235L315 236L314 235z"/>
<path style="fill:#510234; stroke:none;" d="M144 236L145 237L144 236M195 236L196 237L195 236M240 236L241 237L240 236z"/>
<path style="fill:#a20986; stroke:none;" d="M270 236L271 237L270 236z"/>
<path style="fill:#510234; stroke:none;" d="M315 236L316 237L315 236M145 237L146 238L145 237z"/>
<path style="fill:#a20986; stroke:none;" d="M196 237L197 238L196 237z"/>
<path style="fill:#510234; stroke:none;" d="M241 237L242 238L241 237z"/>
<path style="fill:#a20986; stroke:none;" d="M271 237L272 238L271 237z"/>
<path style="fill:#510234; stroke:none;" d="M316 237L317 238L316 237M146 238L147 239L146 238z"/>
<path style="fill:#a20986; stroke:none;" d="M197 238L198 239L197 238z"/>
<path style="fill:#510234; stroke:none;" d="M242 238L243 239L242 238M317 238L318 239L317 238z"/>
<path style="fill:#a20986; stroke:none;" d="M146 239L147 240L146 239M198 239L199 240L198 239z"/>
<path style="fill:#510234; stroke:none;" d="M243 239L244 240L243 239M272 239L273 240L272 239M318 239L319 240L318 239z"/>
<path style="fill:#a20986; stroke:none;" d="M147 240L148 241L147 240z"/>
<path style="fill:#510234; stroke:none;" d="M148 240L149 241L148 240z"/>
<path style="fill:#a20986; stroke:none;" d="M199 240L200 241L199 240z"/>
<path style="fill:#510234; stroke:none;" d="M244 240L245 241L244 240z"/>
<path style="fill:#a20986; stroke:none;" d="M274 240L275 241L274 240z"/>
<path style="fill:#510234; stroke:none;" d="M319 240L320 241L319 240M149 241L150 242L149 241z"/>
<path style="fill:#651080; stroke:none;" d="M200 241L201 242L200 241z"/>
<path style="fill:#a20986; stroke:none;" d="M245 241L246 242L245 241M275 241L276 242L275 241M320 241L321 242L320 241z"/>
<path style="fill:#510234; stroke:none;" d="M150 242L151 243L150 242z"/>
<path style="fill:#651080; stroke:none;" d="M201 242L202 243L201 242z"/>
<path style="fill:#510234; stroke:none;" d="M246 242L247 243L246 242z"/>
<path style="fill:#a20986; stroke:none;" d="M276 242L277 243L276 242z"/>
<path style="fill:#510234; stroke:none;" d="M321 242L322 243L321 242M151 243L152 244L151 243z"/>
<path style="fill:#651080; stroke:none;" d="M202 243L203 244L202 243z"/>
<path style="fill:#510234; stroke:none;" d="M247 243L248 244L247 243z"/>
<path style="fill:#a20986; stroke:none;" d="M277 243L278 244L277 243z"/>
<path style="fill:#510234; stroke:none;" d="M322 243L323 244L322 243M152 244L153 245L152 244z"/>
<path style="fill:#a20986; stroke:none;" d="M203 244L204 245L203 244z"/>
<path style="fill:#510234; stroke:none;" d="M248 244L249 245L248 244z"/>
<path style="fill:#a20986; stroke:none;" d="M278 244L279 245L278 244z"/>
<path style="fill:#510234; stroke:none;" d="M323 244L324 245L323 244M153 245L154 246L153 245M249 245L250 246L249 245M324 245L325 246L324 245M154 246L155 247L154 246z"/>
<path style="fill:#a20986; stroke:none;" d="M205 246L206 247L205 246z"/>
<path style="fill:#510234; stroke:none;" d="M250 246L251 247L250 246z"/>
<path style="fill:#a20986; stroke:none;" d="M280 246L281 247L280 246z"/>
<path style="fill:#510234; stroke:none;" d="M325 246L326 247L325 246M155 247L156 248L155 247z"/>
<path style="fill:#a20986; stroke:none;" d="M206 247L207 248L206 247M251 247L252 248L251 247M281 247L282 248L281 247M326 247L327 248L326 247z"/>
<path style="fill:#510234; stroke:none;" d="M156 248L157 249L156 248z"/>
<path style="fill:#a20986; stroke:none;" d="M207 248L208 249L207 248M252 248L253 249L252 248M282 248L283 249L282 248M327 248L328 249L327 248z"/>
<path style="fill:#510234; stroke:none;" d="M157 249L158 250L157 249z"/>
<path style="fill:#a20986; stroke:none;" d="M208 249L209 250L208 249z"/>
<path style="fill:#510234; stroke:none;" d="M253 249L254 250L253 249z"/>
<path style="fill:#a20986; stroke:none;" d="M283 249L284 250L283 249z"/>
<path style="fill:#651080; stroke:none;" d="M328 249L329 250L328 249z"/>
<path style="fill:#510234; stroke:none;" d="M158 250L159 251L158 250z"/>
<path style="fill:#a20986; stroke:none;" d="M209 250L210 251L209 250z"/>
<path style="fill:#510234; stroke:none;" d="M254 250L255 251L254 250z"/>
<path style="fill:#a20986; stroke:none;" d="M284 250L285 251L284 250z"/>
<path style="fill:#510234; stroke:none;" d="M329 250L330 251L329 250M159 251L160 252L159 251M255 251L256 252L255 251M330 251L331 252L330 251z"/>
<path style="fill:#a20986; stroke:none;" d="M159 252L160 253L159 252z"/>
<path style="fill:#510234; stroke:none;" d="M210 252L211 253L210 252M256 252L257 253L256 252M285 252L286 253L285 252M331 252L332 253L331 252z"/>
<path style="fill:#a20986; stroke:none;" d="M160 253L161 254L160 253z"/>
<path style="fill:#510234; stroke:none;" d="M161 253L162 254L161 253z"/>
<path style="fill:#a20986; stroke:none;" d="M212 253L213 254L212 253z"/>
<path style="fill:#510234; stroke:none;" d="M257 253L258 254L257 253z"/>
<path style="fill:#a20986; stroke:none;" d="M287 253L288 254L287 253M332 253L333 254L332 253z"/>
<path style="fill:#510234; stroke:none;" d="M162 254L163 255L162 254z"/>
<path style="fill:#a20986; stroke:none;" d="M213 254L214 255L213 254M258 254L259 255L258 254M288 254L289 255L288 254M334 254L335 255L334 254z"/>
<path style="fill:#510234; stroke:none;" d="M163 255L164 256L163 255z"/>
<path style="fill:#a20986; stroke:none;" d="M214 255L215 256L214 255z"/>
<path style="fill:#510234; stroke:none;" d="M259 255L260 256L259 255z"/>
<path style="fill:#a20986; stroke:none;" d="M289 255L290 256L289 255z"/>
<path style="fill:#510234; stroke:none;" d="M164 256L165 257L164 256z"/>
<path style="fill:#a20986; stroke:none;" d="M215 256L216 257L215 256M290 256L291 257L290 256M165 258L166 259L165 258z"/>
<path style="fill:#510234; stroke:none;" d="M216 258L217 259L216 258z"/>
<path style="fill:#a20986; stroke:none;" d="M166 259L167 260L166 259z"/>
<path style="fill:#510234; stroke:none;" d="M167 259L168 260L167 259z"/>
<path style="fill:#a20986; stroke:none;" d="M218 259L219 260L218 259z"/>
<path style="fill:#510234; stroke:none;" d="M263 259L264 260L263 259z"/>
<path style="fill:#a20986; stroke:none;" d="M293 259L294 260L293 259z"/>
<path style="fill:#510234; stroke:none;" d="M168 260L169 261L168 260z"/>
<path style="fill:#a20986; stroke:none;" d="M219 260L220 261L219 260z"/>
<path style="fill:#651080; stroke:none;" d="M264 260L265 261L264 260z"/>
<path style="fill:#a20986; stroke:none;" d="M294 260L295 261L294 260z"/>
<path style="fill:#510234; stroke:none;" d="M169 261L170 262L169 261z"/>
<path style="fill:#a20986; stroke:none;" d="M220 261L221 262L220 261z"/>
<path style="fill:#510234; stroke:none;" d="M265 261L266 262L265 261z"/>
<path style="fill:#a20986; stroke:none;" d="M295 261L296 262L295 261z"/>
<path style="fill:#510234; stroke:none;" d="M170 262L171 263L170 262z"/>
<path style="fill:#a20986; stroke:none;" d="M221 262L222 263L221 262M296 262L297 263L296 262z"/>
<path style="fill:#510234; stroke:none;" d="M171 263L172 264L171 263z"/>
<path style="fill:#a20986; stroke:none;" d="M171 264L172 265L171 264z"/>
<path style="fill:#510234; stroke:none;" d="M222 264L223 265L222 264z"/>
<path style="fill:#a20986; stroke:none;" d="M172 265L173 266L172 265M224 265L225 266L224 265z"/>
<path style="fill:#510234; stroke:none;" d="M269 265L270 266L269 265z"/>
<path style="fill:#a20986; stroke:none;" d="M299 265L300 266L299 265z"/>
<path style="fill:#510234; stroke:none;" d="M174 266L175 267L174 266z"/>
<path style="fill:#a20986; stroke:none;" d="M225 266L226 267L225 266z"/>
<path style="fill:#651080; stroke:none;" d="M270 266L271 267L270 266z"/>
<path style="fill:#a20986; stroke:none;" d="M300 266L301 267L300 266z"/>
<path style="fill:#510234; stroke:none;" d="M175 267L176 268L175 267z"/>
<path style="fill:#a20986; stroke:none;" d="M226 267L227 268L226 267z"/>
<path style="fill:#510234; stroke:none;" d="M271 267L272 268L271 267z"/>
<path style="fill:#a20986; stroke:none;" d="M301 267L302 268L301 267z"/>
<path style="fill:#510234; stroke:none;" d="M176 268L177 269L176 268z"/>
<path style="fill:#a20986; stroke:none;" d="M227 268L228 269L227 268M302 268L303 269L302 268z"/>
<path style="fill:#510234; stroke:none;" d="M177 269L178 270L177 269z"/>
<path style="fill:#a20986; stroke:none;" d="M228 269L229 270L228 269M303 269L304 270L303 269M178 271L179 272L178 271M230 271L231 272L230 271z"/>
<path style="fill:#510234; stroke:none;" d="M275 271L276 272L275 271z"/>
<path style="fill:#a20986; stroke:none;" d="M305 271L306 272L305 271M231 272L232 273L231 272z"/>
<path style="fill:#510234; stroke:none;" d="M276 272L277 273L276 272z"/>
<path style="fill:#a20986; stroke:none;" d="M306 272L307 273L306 272z"/>
<path style="fill:#510234; stroke:none;" d="M134 273L134 274L177 274C165.774 269.29 146.219 273 134 273z"/>
<path style="fill:#a20986; stroke:none;" d="M232 273L233 274L232 273z"/>
<path style="fill:#510234; stroke:none;" d="M277 273L278 274L277 273z"/>
<path style="fill:#a20986; stroke:none;" d="M307 273L308 274L307 273M233 274L234 275L233 274z"/>
<path style="fill:#510234; stroke:none;" d="M278 274L279 275L278 274z"/>
<path style="fill:#a20986; stroke:none;" d="M308 274L309 275L308 274M234 275L235 276L234 275M309 275L310 276L309 275z"/>
<path style="fill:#510234; stroke:none;" d="M235 277L236 278L235 277M236 278L237 279L236 278z"/>
<path style="fill:#a20986; stroke:none;" d="M237 278L238 279L237 278z"/>
<path style="fill:#510234; stroke:none;" d="M282 278L283 279L282 278z"/>
<path style="fill:#a20986; stroke:none;" d="M312 278L313 279L312 278M238 279L239 280L238 279z"/>
<path style="fill:#510234; stroke:none;" d="M283 279L284 280L283 279z"/>
<path style="fill:#651080; stroke:none;" d="M313 279L314 280L313 279z"/>
<path style="fill:#a20986; stroke:none;" d="M239 280L240 281L239 280z"/>
<path style="fill:#510234; stroke:none;" d="M284 280L285 281L284 280z"/>
<path style="fill:#651080; stroke:none;" d="M314 280L315 281L314 280z"/>
<path style="fill:#a20986; stroke:none;" d="M240 281L241 282L240 281M315 281L316 282L315 281z"/>
<path style="fill:#510234; stroke:none;" d="M240 282L241 283L240 282M241 283L242 284L241 283M242 284L243 285L242 284M288 284L289 285L288 284z"/>
<path style="fill:#a20986; stroke:none;" d="M318 284L319 285L318 284M244 285L245 286L244 285z"/>
<path style="fill:#510234; stroke:none;" d="M289 285L290 286L289 285z"/>
<path style="fill:#651080; stroke:none;" d="M319 285L320 286L319 285z"/>
<path style="fill:#a20986; stroke:none;" d="M245 286L246 287L245 286z"/>
<path style="fill:#510234; stroke:none;" d="M290 286L291 287L290 286z"/>
<path style="fill:#651080; stroke:none;" d="M320 286L321 287L320 286z"/>
<path style="fill:#a20986; stroke:none;" d="M321 287L322 288L321 287z"/>
<path style="fill:#510234; stroke:none;" d="M246 288L247 289L246 288M247 289L248 290L247 289M248 290L249 291L248 290M294 290L295 291L294 290z"/>
<path style="fill:#a20986; stroke:none;" d="M324 290L325 291L324 290M250 291L251 292L250 291z"/>
<path style="fill:#510234; stroke:none;" d="M295 291L296 292L295 291z"/>
<path style="fill:#651080; stroke:none;" d="M325 291L326 292L325 291z"/>
<path style="fill:#a20986; stroke:none;" d="M251 292L252 293L251 292z"/>
<path style="fill:#510234; stroke:none;" d="M296 292L297 293L296 292z"/>
<path style="fill:#651080; stroke:none;" d="M326 292L327 293L326 292z"/>
<path style="fill:#a20986; stroke:none;" d="M252 293L253 294L252 293z"/>
<path style="fill:#651080; stroke:none;" d="M327 293L328 294L327 293z"/>
<path style="fill:#a20986; stroke:none;" d="M328 294L329 295L328 294z"/>
<path style="fill:#510234; stroke:none;" d="M253 295L254 296L253 295M254 296L255 297L254 296M300 296L301 297L300 296z"/>
<path style="fill:#a20986; stroke:none;" d="M330 296L331 297L330 296M256 297L257 298L256 297z"/>
<path style="fill:#510234; stroke:none;" d="M301 297L302 298L301 297z"/>
<path style="fill:#651080; stroke:none;" d="M331 297L332 298L331 297z"/>
<path style="fill:#a20986; stroke:none;" d="M257 298L258 299L257 298z"/>
<path style="fill:#510234; stroke:none;" d="M302 298L303 299L302 298z"/>
<path style="fill:#651080; stroke:none;" d="M332 298L333 299L332 298z"/>
<path style="fill:#a20986; stroke:none;" d="M258 299L259 300L258 299z"/>
<path style="fill:#510234; stroke:none;" d="M303 299L304 300L303 299z"/>
<path style="fill:#651080; stroke:none;" d="M333 299L334 300L333 299z"/>
<path style="fill:#a20986; stroke:none;" d="M334 300L335 301L334 300z"/>
<path style="fill:#510234; stroke:none;" d="M259 301L260 302L259 301M260 302L261 303L260 302M261 303L262 304L261 303M307 303L308 304L307 303z"/>
<path style="fill:#a20986; stroke:none;" d="M337 303L338 304L337 303M263 304L264 305L263 304z"/>
<path style="fill:#510234; stroke:none;" d="M308 304L309 305L308 304M338 304L339 305L338 304z"/>
<path style="fill:#a20986; stroke:none;" d="M264 305L265 306L264 305z"/>
<path style="fill:#510234; stroke:none;" d="M309 305L310 306L309 305M339 305L340 306L339 305z"/>
<path style="fill:#a20986; stroke:none;" d="M340 306L341 307L340 306z"/>
<path style="fill:#510234; stroke:none;" d="M265 307L266 308L265 307M266 308L267 309L266 308M267 309L268 310L267 309M313 309L314 310L313 309z"/>
<path style="fill:#a20986; stroke:none;" d="M343 309L344 310L343 309z"/>
<path style="fill:#510234; stroke:none;" d="M314 310L315 311L314 310M344 310L345 311L344 310M315 311L316 312L315 311M345 311L346 312L345 311z"/>
<path style="fill:#a20986; stroke:none;" d="M132 312L132 345L346 345L346 344L133 344L132 312M346 312L347 313L346 312M347 313L348 314L347 313M348 314L349 315L348 314z"/>
<path style="fill:#510234; stroke:none;" d="M319 315L320 316L319 315z"/>
<path style="fill:#a20986; stroke:none;" d="M349 315L350 316L349 315z"/>
<path style="fill:#510234; stroke:none;" d="M320 316L321 317L320 316M350 316L351 317L350 316M321 317L322 318L321 317M351 317L352 318L351 317M352 318L353 319L352 318z"/>
<path style="fill:#a20986; stroke:none;" d="M353 319L354 320L353 319M354 320L355 321L354 320z"/>
<path style="fill:#510234; stroke:none;" d="M325 321L326 322L325 321z"/>
<path style="fill:#a20986; stroke:none;" d="M355 321L356 322L355 321z"/>
<path style="fill:#510234; stroke:none;" d="M326 322L327 323L326 322M356 322L357 323L356 322M327 323L328 324L327 323M357 323L358 324L357 323M328 324L329 325L328 324M358 324L359 325L358 324z"/>
<path style="fill:#a20986; stroke:none;" d="M359 325L360 326L359 325M360 326L361 327L360 326M361 327L362 328L361 327z"/>
<path style="fill:#510234; stroke:none;" d="M332 328L333 329L332 328z"/>
<path style="fill:#651080; stroke:none;" d="M362 328L363 329L362 328z"/>
<path style="fill:#510234; stroke:none;" d="M333 329L334 330L333 329M363 329L364 330L363 329M334 330L335 331L334 330M364 330L365 331L364 330M365 331L366 332L365 331M338 334L339 335L338 334M339 335L340 336L339 335M340 336L341 337L340 336z"/>
<path style="fill:#a20986; stroke:none;" d="M341 338L342 339L341 338M342 339L343 340L342 339z"/>
<path style="fill:#510234; stroke:none;" d="M344 340L345 341L344 340M345 341L346 342L345 341M346 343L347 344L346 343z"/>
<path style="fill:#f40297; stroke:none;" d="M133 354L133 377L159 377C159 371.483 160.86 361.781 157.397 357.148C153.078 351.371 139.408 354 133 354z"/>
<path style="fill:#a20986; stroke:none;" d="M155 354L156 355L155 354z"/>
<path style="fill:#510234; stroke:none;" d="M162 354L162 377L163 377L162 354z"/>
<path style="fill:#f40297; stroke:none;" d="M163 354L163 377L169 377L169 370L188 377L183 370L189 370L189 354L163 354z"/>
<path style="fill:#651080; stroke:none;" d="M191 354L191 377L192 377L191 354z"/>
<path style="fill:#f40297; stroke:none;" d="M192 354L192 377L198 377L198 354L192 354z"/>
<path style="fill:#651080; stroke:none;" d="M201 354L201 368L202 368L201 354z"/>
<path style="fill:#f40297; stroke:none;" d="M202 354L202 369L222 369L222 370L202 371L202 377L228 377L228 362L208 362L208 360L228 360L228 354L202 354M231 354L231 377L237 377L237 369L251 369L251 377L257 377L257 354L251 354L251 362L237 362L237 354L231 354z"/>
<path style="fill:#a20986; stroke:none;" d="M237 354L237 362L238 362L237 354M257 354L257 377L258 377L257 354z"/>
<path style="fill:#f40297; stroke:none;" d="M259 354L259 360L269 360L269 377L275 377L275 360L285 360L285 354L259 354z"/>
<path style="fill:#510234; stroke:none;" d="M285 354L285 360L286 360L285 354z"/>
<path style="fill:#f40297; stroke:none;" d="M287 354L287 377L293 377L293 354L287 354z"/>
<path style="fill:#a20986; stroke:none;" d="M293 354L293 377L294 377L293 354M311 354C311.35 364.673 324.279 360.162 332 362L332 361L312 360L311 354z"/>
<path style="fill:#f40297; stroke:none;" d="M312 354L312 360L332 361L332 362L312 362L312 377L338 377L338 371L318 371L318 369C322.934 369 331.202 370.601 335.682 368.397C340.543 366.005 337.643 357.055 333.941 355.028C328.455 352.023 318.136 354 312 354z"/>
<path style="fill:#510234; stroke:none;" d="M334 354L335 355L334 354M340 354L340 361L341 361L340 354z"/>
<path style="fill:#f40297; stroke:none;" d="M341 354L341 360L361 361L361 362L341 362L341 377L367 377L367 371L347 370L347 369L367 369C367 351.223 355.467 354 341 354z"/>
<path style="fill:#a20986; stroke:none;" d="M363 354L364 355L363 354M156 355L157 356L156 355M364 355L365 356L364 355M157 356L158 357L157 356z"/>
<path style="fill:#651080; stroke:none;" d="M365 356L366 357L365 356z"/>
<path style="fill:#a20986; stroke:none;" d="M158 357L159 358L158 357z"/>
<path style="fill:#510234; stroke:none;" d="M366 357L367 358L366 357M159 358L159 377L160 377L159 358M367 359L367 369L368 369L367 359z"/>
<path style="fill:#a20986; stroke:none;" d="M140 360L140 361L153 361L140 360M208 360L208 361L228 361L208 360z"/>
<path style="fill:#510234; stroke:none;" d="M259 360L259 361L268 361L268 377C271.986 367.501 269.177 360.008 259 360z"/>
<path style="fill:#a20986; stroke:none;" d="M268 360L269 361L268 360M275 360L276 361L275 360z"/>
<path style="fill:#510234; stroke:none;" d="M276 360L276 361L285 361L276 360M311 360L312 361L311 360z"/>
<path style="fill:#a20986; stroke:none;" d="M341 360L341 361L360 361L341 360z"/>
<path style="fill:#010101; stroke:none;" d="M140 361L140 370L153 370L153 361L140 361z"/>
<path style="fill:#510234; stroke:none;" d="M169.333 361.667L169.667 362.333L169.333 361.667z"/>
<path style="fill:#010101; stroke:none;" d="M170 361L170 363L182 363L182 361L170 361z"/>
<path style="fill:#a20986; stroke:none;" d="M182.333 361.667L182.667 362.333L182.333 361.667z"/>
<path style="fill:#510234; stroke:none;" d="M275 361L275 377L276 377L275 361M360 361L361 362L360 361z"/>
<path style="fill:#a20986; stroke:none;" d="M311 362L311 377L312 377L311 362z"/>
<path style="fill:#510234; stroke:none;" d="M340 362L340 377L341 377L340 362M201 368L202 369L201 368z"/>
<path style="fill:#a20986; stroke:none;" d="M337 368L338 369L337 368M221 369L222 370L221 369M237 369L237 377L238 377L237 369z"/>
<path style="fill:#510234; stroke:none;" d="M347 369L348 370L347 369z"/>
<path style="fill:#a20986; stroke:none;" d="M140 370L140 371L153 371L140 370z"/>
<path style="fill:#510234; stroke:none;" d="M169 370L169 377L170 377L169 370M183 370L184 371L183 370M201 370L202 371L201 370z"/>
<path style="fill:#a20986; stroke:none;" d="M202 370L202 371L221 371L202 370M318 370L318 371L338 371L318 370M348 370L348 371L367 371L348 370M175 371L176 372L175 371z"/>
<path style="fill:#510234; stroke:none;" d="M184 371L185 372L184 371z"/>
<path style="fill:#651080; stroke:none;" d="M201 371L201 377L202 377L201 371z"/>
<path style="fill:#510234; stroke:none;" d="M367 371L367 377L368 377L367 371z"/>
<path style="fill:#a20986; stroke:none;" d="M176 372L177 373L176 372M177 373L178 374L177 373M186 374L187 375L186 374z"/>
<path style="fill:#510234; stroke:none;" d="M178 375L179 376L178 375z"/>
<path style="fill:#a20986; stroke:none;" d="M187 375L188 376L187 375M179 376L180 377L179 376M188 376L189 377L188 376z"/>
<path style="fill:#510234; stroke:none;" d="M180 377L180 378L188 378L180 377M269 377L269 378L275 378L269 377z"/>
</svg>
